<svg xmlns="http://www.w3.org/2000/svg" viewBox="0 0 800 222"><style>.st0{display:none;} .st1{display:inline;} .st2{fill:#FFFFFF;} .st3{fill:none;stroke:#9882CE;stroke-width:4;stroke-miterlimit:10;} .st4{fill:#B3E3FF;stroke:#404040;stroke-width:4;stroke-miterlimit:10;} .st5{fill:#FFFFFF;stroke:#404040;stroke-width:4;stroke-miterlimit:10;} .st6{fill:none;stroke:#404040;stroke-width:4;stroke-linecap:round;stroke-linejoin:round;stroke-miterlimit:10;} .st7{fill:#B18BE8;stroke:#404040;stroke-width:4;stroke-linecap:round;stroke-linejoin:round;stroke-miterlimit:10;} .st8{fill:#404040;} .st9{fill:none;stroke:#404040;stroke-width:4;stroke-miterlimit:10;} .st10{fill:#B18BE8;stroke:#404040;stroke-width:4;stroke-miterlimit:10;} .st11{fill:#4ED1A1;stroke:#404040;stroke-width:4;stroke-miterlimit:10;} .st12{fill:none;stroke:#CCCCCC;stroke-width:7;stroke-linecap:round;stroke-linejoin:round;stroke-miterlimit:10;} .st13{fill:#FFFFFF;stroke:#CCCCCC;stroke-width:7;stroke-linecap:round;stroke-linejoin:round;stroke-miterlimit:10;} .st14{fill:none;stroke:#404040;stroke-width:7;stroke-miterlimit:10;} .st15{fill:#B3E3FF;stroke:#404040;stroke-width:7;stroke-miterlimit:10;} .st16{fill:#CCCCCC;} .st17{fill:#FFFFFF;stroke:#404040;stroke-width:4;stroke-linejoin:round;stroke-miterlimit:10;} .st18{fill:#FFFFFF;stroke:#404040;stroke-width:4;stroke-linecap:round;stroke-linejoin:round;stroke-miterlimit:10;} .st19{fill:#B3E3FF;stroke:#404040;stroke-width:4;stroke-linejoin:round;stroke-miterlimit:10;} .st20{fill:none;stroke:#CCCCCC;stroke-linecap:round;stroke-linejoin:round;stroke-miterlimit:10;} .st21{fill:#999999;} .st22{fill:#4ED1A1;stroke:#404040;stroke-width:4;stroke-linecap:round;stroke-linejoin:round;stroke-miterlimit:10;} .st23{fill:#4CD3D6;stroke:#404040;stroke-width:4;stroke-linejoin:round;stroke-miterlimit:10;} .st24{fill:none;stroke:#59AFE1;stroke-width:4;stroke-miterlimit:10;} .st25{fill:#59AFE1;stroke:#404040;stroke-width:4;stroke-linejoin:round;stroke-miterlimit:10;} .st26{fill:#FFFFFF;stroke:#59AFE1;stroke-width:4;stroke-miterlimit:10;} .st27{fill:#B3E3FF;stroke:#404040;stroke-width:4;stroke-linecap:round;stroke-linejoin:round;stroke-miterlimit:10;} .st28{fill:#FC8363;stroke:#404040;stroke-width:4;stroke-linecap:round;stroke-linejoin:round;stroke-miterlimit:10;} .st29{fill:#CCCCCC;stroke:#404040;stroke-width:4;stroke-miterlimit:10;} .st30{fill:#FFFFFF;stroke:#6693ED;stroke-width:4;stroke-miterlimit:10;} .st31{fill:none;stroke:#A97CDD;stroke-width:4;stroke-linecap:round;stroke-linejoin:round;stroke-miterlimit:10;} .st32{fill:none;stroke:#B3E3FF;stroke-width:4;stroke-linecap:round;stroke-linejoin:round;stroke-miterlimit:10;} .st33{fill:none;stroke:#4ED1A1;stroke-width:4;stroke-linecap:round;stroke-miterlimit:10;} .st34{fill:none;stroke:#4ED1A1;stroke-width:4;stroke-linecap:round;stroke-linejoin:round;stroke-miterlimit:10;} .st35{fill:#E24B88;stroke:#404040;stroke-width:4;stroke-linecap:round;stroke-linejoin:round;stroke-miterlimit:10;} .st36{fill:none;stroke:#DEEFF8;stroke-width:4;stroke-miterlimit:10;} .st37{fill:none;stroke:#CCCCCC;stroke-width:4;stroke-linecap:round;stroke-linejoin:round;} .st38{fill:none;stroke:#CCCCCC;stroke-width:4;stroke-linecap:round;stroke-linejoin:round;stroke-dasharray:0,14.3051;} .st39{fill:none;stroke:#CCCCCC;stroke-width:4;stroke-linecap:round;stroke-linejoin:round;stroke-dasharray:0,14.1689;} .st40{fill:none;stroke:#CCCCCC;stroke-width:4;stroke-linecap:round;stroke-linejoin:round;stroke-dasharray:0,13.9788;} .st41{fill:none;stroke:#CCCCCC;stroke-width:4;stroke-linecap:round;stroke-linejoin:round;stroke-dasharray:0,14.7877;} .st42{fill:none;stroke:#CCCCCC;stroke-width:4;stroke-linecap:round;stroke-linejoin:round;stroke-dasharray:0,14.9632;} .st43{fill:none;stroke:#CCCCCC;stroke-width:4;stroke-linecap:round;stroke-linejoin:round;stroke-dasharray:0,12.543;} .st44{fill:none;stroke:#CCCCCC;stroke-width:4;stroke-linecap:round;stroke-linejoin:round;stroke-dasharray:0,13.6844;} .st45{fill:none;stroke:#CCCCCC;stroke-width:4;stroke-linecap:round;stroke-linejoin:round;stroke-dasharray:0,13.7717;} .st46{fill:none;stroke:#CCCCCC;stroke-width:4;stroke-linecap:round;stroke-linejoin:round;stroke-dasharray:0,13.6492;} .st47{fill:none;stroke:#CCCCCC;stroke-width:4;stroke-linecap:round;stroke-linejoin:round;stroke-dasharray:0,13.907;} .st48{fill:#4CD3D6;stroke:#404040;stroke-width:4;stroke-linecap:round;stroke-linejoin:round;stroke-miterlimit:10;} .st49{fill:none;stroke:#CCCCCC;stroke-width:4;stroke-linecap:round;stroke-linejoin:round;stroke-dasharray:0,14.9858;} .st50{fill:none;stroke:#CCCCCC;stroke-width:4;stroke-linecap:round;stroke-linejoin:round;stroke-dasharray:0,14.0118;} .st51{fill:none;stroke:#CCCCCC;stroke-width:4;stroke-linecap:round;stroke-linejoin:round;stroke-dasharray:0,14.1243;} .st52{fill:none;} .st53{fill:#FFFFFF;stroke:#404040;stroke-width:7;stroke-linecap:round;stroke-linejoin:round;stroke-miterlimit:10;} .st54{fill:#59AFE1;stroke:#404040;stroke-width:7;stroke-linejoin:round;stroke-miterlimit:10;} .st55{fill:#E24B88;stroke:#404040;stroke-width:7;stroke-linecap:round;stroke-linejoin:round;stroke-miterlimit:10;} .st56{fill:none;stroke:#404040;stroke-width:7;stroke-linecap:round;stroke-linejoin:round;stroke-miterlimit:10;} .st57{fill:none;stroke:#CCCCCC;stroke-width:4;stroke-linecap:round;stroke-linejoin:round;stroke-miterlimit:10;} .st58{fill:#FFFFFF;stroke:#CCCCCC;stroke-width:4;stroke-linecap:round;stroke-linejoin:round;stroke-miterlimit:10;} .st59{fill:#F5F5F5;} .st60{fill:#3873AE;} .st61{fill:#75706C;} .st62{fill:none;stroke:#B3E3FF;stroke-width:4;stroke-miterlimit:10;} .st63{fill:#6F6F6F;} .st64{fill:none;stroke:#6F6F6F;stroke-width:2;stroke-miterlimit:10;} .st65{fill:none;stroke:#6F6F6F;stroke-width:3;stroke-miterlimit:10;} .st66{fill:#FFFFFF;stroke:#404040;stroke-width:6;stroke-miterlimit:10;} .st67{fill:#B3E3FF;stroke:#404040;stroke-width:6;stroke-miterlimit:10;}</style><g id="saving_x5F_changes"><path id="repo1_131_" class="st4" d="M506.6,157.5c0-12.4,28.2-22.4,63-22.4c34.8,0,63,10,63,22.4 M506.6,157.5v27.9 c0,3,1.7,5.9,4.7,8.5c9.4,8.2,32,13.9,58.3,13.9c26.4,0,48.9-5.8,58.3-13.9c3-2.6,4.7-5.5,4.7-8.5v-27.9"/><path class="st5" d="M632.6,157.5c0,12.4-28.2,22.4-63,22.4c-34.8,0-63-10-63-22.4c0-12.4,28.2-22.4,63-22.4 C604.4,135.1,632.6,145.1,632.6,157.5z"/><path class="st7" d="M177.4 13.6H378.8V136.6H177.4z"/><path class="st4" d="M196.4 32.6H359.8V117.6H196.4z"/><path class="st7" d="M388.8 193L167.4 193 177.4 150 378.8 150z"/><path class="st2" d="M263.6,96.2c-1.1,0-2-0.9-2-2V56c0-1.1,0.9-2,2-2h16.7c0.6,0,1.1,0.2,1.5,0.7l12.3,13.9 c0.3,0.4,0.5,0.8,0.5,1.3v24.2c0,1.1-0.9,2-2,2H263.6z"/><path class="st8" d="M280.3,56L292.6,70v24.2h-29V56H280.3 M280.3,52h-16.7c-2.2,0-4,1.8-4,4v38.2c0,2.2,1.8,4,4,4h29 c2.2,0,4-1.8,4-4V70c0-1-0.4-1.9-1-2.6l-12.3-13.9C282.5,52.5,281.4,52,280.3,52L280.3,52z"/><path class="st2" d="M336.2,96.2c-1.1,0-2-0.9-2-2V56c0-1.1,0.9-2,2-2h16.7c0.6,0,1.1,0.2,1.5,0.7l12.3,13.9 c0.3,0.4,0.5,0.8,0.5,1.3v24.2c0,1.1-0.9,2-2,2H336.2z"/><path class="st8" d="M352.8,56L365.2,70v24.2h-29V56H352.8 M352.8,52h-16.7c-2.2,0-4,1.8-4,4v38.2c0,2.2,1.8,4,4,4h29 c2.2,0,4-1.8,4-4V70c0-1-0.4-1.9-1-2.6l-12.3-13.9C355.1,52.5,354,52,352.8,52L352.8,52z"/><path class="st8" d="M352.8,54c0-1.1,15.4,15.9,14.3,15.9h-12.3c-1.1,0-2-0.9-2-2V54z"/><path class="st8" d="M280.3,54c0-1.1,15.4,15.9,14.3,15.9h-12.3c-1.1,0-2-0.9-2-2V54z"/><path class="st2" d="M408.7,96.2c-1.1,0-2-0.9-2-2V56c0-1.1,0.9-2,2-2h16.7c0.6,0,1.1,0.2,1.5,0.7l12.3,13.9 c0.3,0.4,0.5,0.8,0.5,1.3v24.2c0,1.1-0.9,2-2,2H408.7z"/><path class="st8" d="M425.4,56L437.7,70v24.2h-29V56H425.4 M425.4,52h-16.7c-2.2,0-4,1.8-4,4v38.2c0,2.2,1.8,4,4,4h29 c2.2,0,4-1.8,4-4V70c0-1-0.4-1.9-1-2.6l-12.3-13.9C427.6,52.5,426.5,52,425.4,52L425.4,52z"/><path class="st2" d="M481.2,96.2c-1.1,0-2-0.9-2-2V56c0-1.1,0.9-2,2-2h16.7c0.6,0,1.1,0.2,1.5,0.7l12.3,13.9 c0.3,0.4,0.5,0.8,0.5,1.3v24.2c0,1.1-0.9,2-2,2H481.2z"/><path class="st8" d="M497.9,56L510.2,70v24.2h-29V56H497.9 M497.9,52h-16.7c-2.2,0-4,1.8-4,4v38.2c0,2.2,1.8,4,4,4h29 c2.2,0,4-1.8,4-4V70c0-1-0.4-1.9-1-2.6l-12.3-13.9C500.1,52.5,499,52,497.9,52L497.9,52z"/><path class="st8" d="M591.6,157.5c0,4.3-9.8,7.8-22,7.8c-12.2,0-22-3.5-22-7.8c0-4.3,9.8-7.8,22-7.8 C581.7,149.7,591.6,153.2,591.6,157.5z"/><path class="st8" d="M425.4,54c0-1.1,15.4,15.9,14.3,15.9h-12.3c-1.1,0-2-0.9-2-2V54z"/><path class="st8" d="M497.9,54c0-1.1,15.4,15.9,14.3,15.9h-12.3c-1.1,0-2-0.9-2-2V54z"/><path class="st2" d="M553.6,96.2c-1.1,0-2-0.9-2-2V56c0-1.1,0.9-2,2-2h16.7c0.6,0,1.1,0.2,1.5,0.7L584,68.6 c0.3,0.4,0.5,0.8,0.5,1.3v24.2c0,1.1-0.9,2-2,2H553.6z"/><path class="st8" d="M570.2,56L582.5,70v24.2h-29V56H570.2 M570.2,52h-16.7c-2.2,0-4,1.8-4,4v38.2c0,2.2,1.8,4,4,4h29 c2.2,0,4-1.8,4-4V70c0-1-0.4-1.9-1-2.6l-12.3-13.9C572.5,52.5,571.4,52,570.2,52L570.2,52z"/><path class="st8" d="M570.2,54c0-1.1,15.4,15.9,14.3,15.9h-12.3c-1.1,0-2-0.9-2-2V54z"/></g><path class="st2" d="M565.1,161.2c-0.9,0-1.7-0.6-1.9-1.5l-10-38.2c-0.2-0.6,0-1.2,0.4-1.7c0.4-0.5,1-0.8,1.6-0.8h16.7 c0.6,0,1.1,0.2,1.5,0.7l12.3,13.9c0.5,0.6,0.6,1.4,0.4,2.1l-10,24.2c-0.3,0.7-1,1.2-1.8,1.2H565.1z"/><path class="st8" d="M571.7,121L584,135l-10,24.2h-9l-10-38.2H571.7 M571.7,117h-16.7c-1.2,0-2.4,0.6-3.2,1.6s-1,2.3-0.7,3.5 l10,38.2c0.5,1.8,2.1,3,3.9,3h9c1.6,0,3.1-1,3.7-2.5l10-24.2c0.6-1.4,0.3-3-0.7-4.2l-12.3-13.9C574,117.5,572.9,117,571.7,117 L571.7,117z"/><path class="st8" d="M571.7,119c0-1.1,15.4,15.9,14.3,15.9h-12.3c-1.1,0-2-0.9-2-2V119z"/></svg>